<svg width="62" height="20" viewBox="0 0 62 20" fill="none" xmlns="http://www.w3.org/2000/svg">
<g clip-path="url(#clip0_249_15)">
<rect width="62" height="20" fill="black"/>
<path d="M33.3604 8.5C33.2744 8.23698 33.1611 8.0013 33.0205 7.79297C32.8825 7.58203 32.7171 7.40234 32.5244 7.25391C32.3343 7.10547 32.1182 6.99219 31.876 6.91406C31.6338 6.83594 31.3682 6.79687 31.0791 6.79687C30.6051 6.79687 30.1742 6.91927 29.7861 7.16406C29.3981 7.40885 29.0895 7.76953 28.8604 8.24609C28.6312 8.72266 28.5166 9.30729 28.5166 10C28.5166 10.6927 28.6325 11.2773 28.8643 11.7539C29.096 12.2305 29.4098 12.5911 29.8057 12.8359C30.2015 13.0807 30.6468 13.2031 31.1416 13.2031C31.5999 13.2031 32.0036 13.1055 32.3525 12.9102C32.7041 12.7122 32.9775 12.4336 33.1729 12.0742C33.3708 11.7122 33.4697 11.2865 33.4697 10.7969L33.7666 10.8594H31.3604V10H34.4072V10.8594C34.4072 11.5182 34.2666 12.0911 33.9854 12.5781C33.7067 13.0651 33.3213 13.4427 32.8291 13.7109C32.3395 13.9766 31.777 14.1094 31.1416 14.1094C30.4333 14.1094 29.8109 13.9427 29.2744 13.6094C28.7406 13.276 28.3239 12.8021 28.0244 12.1875C27.7275 11.5729 27.5791 10.8437 27.5791 10C27.5791 9.36719 27.6637 8.79818 27.833 8.29297C28.0049 7.78516 28.2471 7.35286 28.5596 6.99609C28.8721 6.63932 29.2419 6.36589 29.6689 6.17578C30.096 5.98568 30.5661 5.89062 31.0791 5.89062C31.501 5.89062 31.8942 5.95443 32.2588 6.08203C32.626 6.20703 32.9528 6.38542 33.2393 6.61719C33.5283 6.84635 33.7692 7.12109 33.9619 7.44141C34.1546 7.75911 34.2874 8.11198 34.3604 8.5H33.3604ZM35.9414 14V8H36.832V8.9375H36.9102C37.0352 8.61719 37.237 8.36849 37.5156 8.19141C37.7943 8.01172 38.1289 7.92188 38.5195 7.92188C38.9154 7.92188 39.2448 8.01172 39.5078 8.19141C39.7734 8.36849 39.9805 8.61719 40.1289 8.9375H40.1914C40.3451 8.6276 40.5755 8.38151 40.8828 8.19922C41.1901 8.01432 41.5586 7.92188 41.9883 7.92188C42.5247 7.92188 42.9635 8.08984 43.3047 8.42578C43.6458 8.75911 43.8164 9.27865 43.8164 9.98437V14H42.8945V9.98437C42.8945 9.54167 42.7734 9.22526 42.5312 9.03516C42.2891 8.84505 42.0039 8.75 41.6758 8.75C41.2539 8.75 40.9271 8.8776 40.6953 9.13281C40.4635 9.38542 40.3477 9.70573 40.3477 10.0937V14H39.4102V9.89062C39.4102 9.54948 39.2995 9.27474 39.0781 9.06641C38.8568 8.85547 38.5716 8.75 38.2227 8.75C37.9831 8.75 37.7591 8.8138 37.5508 8.94141C37.3451 9.06901 37.1784 9.24609 37.0508 9.47266C36.9258 9.69661 36.8633 9.95573 36.8633 10.25V14H35.9414ZM47.2676 14.1406C46.8874 14.1406 46.5423 14.069 46.2324 13.9258C45.9225 13.7799 45.6764 13.5703 45.4941 13.2969C45.3118 13.0208 45.2207 12.6875 45.2207 12.2969C45.2207 11.9531 45.2884 11.6745 45.4238 11.4609C45.5592 11.2448 45.7402 11.0755 45.9668 10.9531C46.1934 10.8307 46.4434 10.7396 46.7168 10.6797C46.9928 10.6172 47.2702 10.5677 47.5488 10.5313C47.9134 10.4844 48.209 10.4492 48.4355 10.4258C48.6647 10.3997 48.8314 10.3568 48.9355 10.2969C49.0423 10.237 49.0957 10.1328 49.0957 9.98437V9.95312C49.0957 9.56771 48.9902 9.26823 48.7793 9.05469C48.571 8.84115 48.2546 8.73437 47.8301 8.73437C47.39 8.73437 47.0449 8.83073 46.7949 9.02344C46.5449 9.21615 46.3691 9.42187 46.2676 9.64062L45.3926 9.32812C45.5488 8.96354 45.7572 8.67969 46.0176 8.47656C46.2806 8.27083 46.5671 8.1276 46.877 8.04687C47.1895 7.96354 47.4967 7.92188 47.7988 7.92188C47.9915 7.92188 48.2129 7.94531 48.4629 7.99219C48.7155 8.03646 48.959 8.12891 49.1934 8.26953C49.4303 8.41016 49.627 8.6224 49.7832 8.90625C49.9395 9.1901 50.0176 9.57031 50.0176 10.0469V14H49.0957V13.1875H49.0488C48.9863 13.3177 48.8822 13.457 48.7363 13.6055C48.5905 13.7539 48.3965 13.8802 48.1543 13.9844C47.9121 14.0885 47.6165 14.1406 47.2676 14.1406ZM47.4082 13.3125C47.7728 13.3125 48.0801 13.2409 48.3301 13.0977C48.5827 12.9544 48.7728 12.7695 48.9004 12.543C49.0306 12.3164 49.0957 12.0781 49.0957 11.8281V10.9844C49.0566 11.0312 48.9707 11.0742 48.8379 11.1133C48.7077 11.1497 48.5566 11.1823 48.3848 11.2109C48.2155 11.237 48.0501 11.2604 47.8887 11.2812C47.7298 11.2995 47.6009 11.3151 47.502 11.3281C47.2624 11.3594 47.0384 11.4102 46.8301 11.4805C46.6243 11.5482 46.4577 11.651 46.3301 11.7891C46.2051 11.9245 46.1426 12.1094 46.1426 12.3437C46.1426 12.6641 46.2611 12.9062 46.498 13.0703C46.7376 13.2318 47.041 13.3125 47.4082 13.3125ZM51.7002 14V8H52.6221V14H51.7002ZM52.1689 7C51.9893 7 51.8343 6.9388 51.7041 6.81641C51.5765 6.69401 51.5127 6.54688 51.5127 6.375C51.5127 6.20313 51.5765 6.05599 51.7041 5.93359C51.8343 5.8112 51.9893 5.75 52.1689 5.75C52.3486 5.75 52.5023 5.8112 52.6299 5.93359C52.7601 6.05599 52.8252 6.20313 52.8252 6.375C52.8252 6.54688 52.7601 6.69401 52.6299 6.81641C52.5023 6.9388 52.3486 7 52.1689 7ZM55.2324 6V14H54.3105V6H55.2324Z" fill="#DBDBDB"/>
<g clip-path="url(#clip1_249_15)">
<path d="M7.02273 16H9.40909V9.81821L6 7.09094V14.9091C6 15.5128 6.45852 16 7.02273 16Z" fill="#E75A4D"/>
<path d="M17.5909 16H19.9773C20.5432 16 21 15.5109 21 14.9091V7.09094L17.5909 9.81821" fill="#E75A4D"/>
<path d="M17.5909 5.09095L13.5 8.5V10V11.5L17.5909 9.81822L20.9999 10L21 5.63641C21 4.28732 19.5562 3.51822 18.5454 4.32732" fill="#E75A4D"/>
<path d="M9.40906 9.81822V5.09094L13.5 8.36367L17.5909 5.09094V7.45458V9.81822L13.5 13.0909" fill="#E75A4D"/>
<path d="M6 5.63946V10H7.5H8.5L9.40909 9.82031L13.5 13L15 11L17 8.5H13.5L9.40909 5.094L8.45455 4.33037C7.44205 3.52128 6 4.29037 6 5.63946Z" fill="#E75A4D"/>
</g>
</g>
<defs>
<clipPath id="clip0_249_15">
<rect width="62" height="20" rx="2" fill="white"/>
</clipPath>
<clipPath id="clip1_249_15">
<rect width="15" height="12" fill="white" transform="translate(6 4)"/>
</clipPath>
</defs>
</svg>
