<svg width="62" height="20" viewBox="0 0 62 20" fill="none" xmlns="http://www.w3.org/2000/svg">
<g clip-path="url(#clip0_249_15)">
<rect width="62" height="20" fill="black"/>
<path d="M32.1118 8.58594C32.0571 8.39583 31.9803 8.22786 31.8813 8.08203C31.7824 7.93359 31.6613 7.80859 31.5181 7.70703C31.3774 7.60286 31.216 7.52344 31.0337 7.46875C30.854 7.41406 30.6548 7.38672 30.436 7.38672C30.0272 7.38672 29.6678 7.48828 29.3579 7.69141C29.0506 7.89453 28.811 8.1901 28.6392 8.57812C28.4673 8.96354 28.3813 9.4349 28.3813 9.99219C28.3813 10.5495 28.466 11.0234 28.6353 11.4141C28.8045 11.8047 29.0441 12.1029 29.354 12.3086C29.6639 12.5117 30.0298 12.6133 30.4517 12.6133C30.8345 12.6133 31.1613 12.5456 31.4321 12.4102C31.7056 12.2721 31.9139 12.0781 32.0571 11.8281C32.203 11.5781 32.2759 11.2826 32.2759 10.9414L32.6196 10.9922H30.5571V9.71875H33.9048V10.7266C33.9048 11.4297 33.7563 12.0339 33.4595 12.5391C33.1626 13.0417 32.7537 13.4297 32.2329 13.7031C31.7121 13.974 31.1157 14.1094 30.4438 14.1094C29.6938 14.1094 29.035 13.944 28.4673 13.6133C27.8996 13.2799 27.4569 12.8073 27.1392 12.1953C26.8241 11.5807 26.6665 10.8516 26.6665 10.0078C26.6665 9.35937 26.7603 8.78125 26.9478 8.27344C27.1379 7.76302 27.4035 7.33073 27.7446 6.97656C28.0858 6.6224 28.4829 6.35286 28.936 6.16797C29.3892 5.98307 29.88 5.89062 30.4087 5.89062C30.8618 5.89062 31.2837 5.95703 31.6743 6.08984C32.0649 6.22005 32.4113 6.40495 32.7134 6.64453C33.0181 6.88411 33.2668 7.16927 33.4595 7.5C33.6522 7.82812 33.7759 8.1901 33.8306 8.58594H32.1118ZM35.144 14V8H36.73V9.05859H36.8003C36.9253 8.70703 37.1336 8.42969 37.4253 8.22656C37.717 8.02344 38.0659 7.92188 38.4722 7.92188C38.8836 7.92188 39.2339 8.02474 39.5229 8.23047C39.812 8.43359 40.0047 8.70964 40.1011 9.05859H40.1636C40.286 8.71484 40.5073 8.4401 40.8276 8.23437C41.1506 8.02604 41.5321 7.92188 41.9722 7.92188C42.5321 7.92188 42.9865 8.10026 43.3354 8.45703C43.687 8.8112 43.8628 9.3138 43.8628 9.96484V14H42.2026V10.293C42.2026 9.95964 42.1141 9.70964 41.937 9.54297C41.7599 9.3763 41.5386 9.29297 41.2729 9.29297C40.9709 9.29297 40.7352 9.38932 40.5659 9.58203C40.3966 9.77214 40.312 10.0234 40.312 10.3359V14H38.6987V10.2578C38.6987 9.96354 38.6141 9.72917 38.4448 9.55469C38.2782 9.38021 38.0581 9.29297 37.7847 9.29297C37.5998 9.29297 37.4331 9.33984 37.2847 9.43359C37.1388 9.52474 37.0229 9.65365 36.937 9.82031C36.8511 9.98437 36.8081 10.1771 36.8081 10.3984V14H35.144ZM46.8882 14.1133C46.5054 14.1133 46.1642 14.0469 45.8647 13.9141C45.5653 13.7786 45.3283 13.5794 45.1538 13.3164C44.9819 13.0508 44.896 12.7201 44.896 12.3242C44.896 11.9909 44.9572 11.7109 45.0796 11.4844C45.202 11.2578 45.3687 11.0755 45.5796 10.9375C45.7905 10.7995 46.0301 10.6953 46.2983 10.625C46.5692 10.5547 46.853 10.5052 47.1499 10.4766C47.4989 10.4401 47.7801 10.4062 47.9937 10.375C48.2072 10.3411 48.3621 10.2917 48.4585 10.2266C48.5549 10.1615 48.603 10.0651 48.603 9.9375V9.91406C48.603 9.66667 48.5249 9.47526 48.3687 9.33984C48.215 9.20443 47.9963 9.13672 47.7124 9.13672C47.4129 9.13672 47.1746 9.20312 46.9976 9.33594C46.8205 9.46615 46.7033 9.63021 46.646 9.82812L45.1069 9.70312C45.1851 9.33854 45.3387 9.02344 45.5679 8.75781C45.797 8.48958 46.0926 8.28385 46.4546 8.14062C46.8192 7.99479 47.241 7.92188 47.7202 7.92188C48.0535 7.92188 48.3726 7.96094 48.6772 8.03906C48.9845 8.11719 49.2567 8.23828 49.4937 8.40234C49.7332 8.56641 49.922 8.77734 50.0601 9.03516C50.1981 9.29036 50.2671 9.59635 50.2671 9.95312V14H48.689V13.168H48.6421C48.5457 13.3555 48.4168 13.5208 48.2554 13.6641C48.0939 13.8047 47.8999 13.9154 47.6733 13.9961C47.4468 14.0742 47.1851 14.1133 46.8882 14.1133ZM47.3647 12.9648C47.6095 12.9648 47.8257 12.9167 48.0132 12.8203C48.2007 12.7214 48.3478 12.5885 48.4546 12.4219C48.5614 12.2552 48.6147 12.0664 48.6147 11.8555V11.2188C48.5627 11.2526 48.491 11.2839 48.3999 11.3125C48.3114 11.3385 48.2111 11.3633 48.0991 11.3867C47.9871 11.4076 47.8752 11.4271 47.7632 11.4453C47.6512 11.4609 47.5496 11.4753 47.4585 11.4883C47.2632 11.5169 47.0926 11.5625 46.9468 11.625C46.8009 11.6875 46.6877 11.7721 46.6069 11.8789C46.5262 11.9831 46.4858 12.1133 46.4858 12.2695C46.4858 12.4961 46.5679 12.6693 46.7319 12.7891C46.8986 12.9062 47.1095 12.9648 47.3647 12.9648ZM51.5581 14V8H53.2222V14H51.5581ZM52.394 7.22656C52.1466 7.22656 51.9344 7.14453 51.7573 6.98047C51.5828 6.8138 51.4956 6.61458 51.4956 6.38281C51.4956 6.15365 51.5828 5.95703 51.7573 5.79297C51.9344 5.6263 52.1466 5.54297 52.394 5.54297C52.6414 5.54297 52.8524 5.6263 53.0269 5.79297C53.2039 5.95703 53.2925 6.15365 53.2925 6.38281C53.2925 6.61458 53.2039 6.8138 53.0269 6.98047C52.8524 7.14453 52.6414 7.22656 52.394 7.22656ZM56.2192 6V14H54.5552V6H56.2192Z" fill="#DBDBDB"/>
<g clip-path="url(#clip1_249_15)">
<path d="M7.02273 16H9.40909V9.81821L6 7.09094V14.9091C6 15.5128 6.45852 16 7.02273 16Z" fill="#E75A4D"/>
<path d="M17.5909 16H19.9773C20.5432 16 21 15.5109 21 14.9091V7.09094L17.5909 9.81821" fill="#E75A4D"/>
<path d="M17.5909 5.09095L13.5 8.5V10V11.5L17.5909 9.81822L20.9999 10L21 5.63641C21 4.28732 19.5562 3.51822 18.5454 4.32732" fill="#E75A4D"/>
<path d="M9.40906 9.81822V5.09094L13.5 8.36367L17.5909 5.09094V7.45458V9.81822L13.5 13.0909" fill="#E75A4D"/>
<path d="M6 5.63946V10H7.5H8.5L9.40909 9.82031L13.5 13L15 11L17 8.5H13.5L9.40909 5.094L8.45455 4.33037C7.44205 3.52128 6 4.29037 6 5.63946Z" fill="#E75A4D"/>
</g>
</g>
<defs>
<clipPath id="clip0_249_15">
<rect width="62" height="20" rx="2" fill="white"/>
</clipPath>
<clipPath id="clip1_249_15">
<rect width="15" height="12" fill="white" transform="translate(6 4)"/>
</clipPath>
</defs>
</svg>
