<svg width="62" height="20" viewBox="0 0 62 20" fill="none" xmlns="http://www.w3.org/2000/svg">
<g clip-path="url(#clip0_165_35)">
<rect width="62" height="20" rx="3" fill="url(#paint0_linear_165_35)"/>
<path d="M32.2118 8.58594C32.1571 8.39583 32.0803 8.22786 31.9813 8.08203C31.8824 7.93359 31.7613 7.80859 31.618 7.70703C31.4774 7.60286 31.316 7.52344 31.1337 7.46875C30.954 7.41406 30.7548 7.38672 30.536 7.38672C30.1272 7.38672 29.7678 7.48828 29.4579 7.69141C29.1506 7.89453 28.911 8.1901 28.7391 8.57812C28.5673 8.96354 28.4813 9.4349 28.4813 9.99219C28.4813 10.5495 28.566 11.0234 28.7352 11.4141C28.9045 11.8047 29.1441 12.1029 29.454 12.3086C29.7639 12.5117 30.1298 12.6133 30.5516 12.6133C30.9344 12.6133 31.2613 12.5456 31.5321 12.4102C31.8055 12.2721 32.0139 12.0781 32.1571 11.8281C32.3029 11.5781 32.3759 11.2826 32.3759 10.9414L32.7196 10.9922H30.6571V9.71875H34.0048V10.7266C34.0048 11.4297 33.8563 12.0339 33.5594 12.5391C33.2626 13.0417 32.8537 13.4297 32.3329 13.7031C31.8121 13.974 31.2157 14.1094 30.5438 14.1094C29.7938 14.1094 29.135 13.944 28.5673 13.6133C27.9996 13.2799 27.5568 12.8073 27.2391 12.1953C26.924 11.5807 26.7665 10.8516 26.7665 10.0078C26.7665 9.35937 26.8602 8.78125 27.0477 8.27344C27.2378 7.76302 27.5035 7.33073 27.8446 6.97656C28.1858 6.6224 28.5829 6.35286 29.036 6.16797C29.4891 5.98307 29.98 5.89062 30.5087 5.89062C30.9618 5.89062 31.3837 5.95703 31.7743 6.08984C32.1649 6.22005 32.5113 6.40495 32.8134 6.64453C33.118 6.88411 33.3667 7.16927 33.5594 7.5C33.7522 7.82812 33.8759 8.1901 33.9305 8.58594H32.2118ZM35.244 14V8H36.83V9.05859H36.9003C37.0253 8.70703 37.2336 8.42969 37.5253 8.22656C37.8169 8.02344 38.1659 7.92188 38.5721 7.92188C38.9836 7.92188 39.3339 8.02474 39.6229 8.23047C39.912 8.43359 40.1047 8.70964 40.2011 9.05859H40.2636C40.3859 8.71484 40.6073 8.4401 40.9276 8.23437C41.2505 8.02604 41.632 7.92188 42.0721 7.92188C42.632 7.92188 43.0865 8.10026 43.4354 8.45703C43.787 8.8112 43.9628 9.3138 43.9628 9.96484V14H42.3026V10.293C42.3026 9.95964 42.2141 9.70964 42.037 9.54297C41.8599 9.3763 41.6386 9.29297 41.3729 9.29297C41.0708 9.29297 40.8352 9.38932 40.6659 9.58203C40.4966 9.77214 40.412 10.0234 40.412 10.3359V14H38.7987V10.2578C38.7987 9.96354 38.7141 9.72917 38.5448 9.55469C38.3781 9.38021 38.1581 9.29297 37.8846 9.29297C37.6997 9.29297 37.5331 9.33984 37.3846 9.43359C37.2388 9.52474 37.1229 9.65365 37.037 9.82031C36.951 9.98437 36.9081 10.1771 36.9081 10.3984V14H35.244ZM46.9882 14.1133C46.6053 14.1133 46.2642 14.0469 45.9647 13.9141C45.6652 13.7786 45.4283 13.5794 45.2538 13.3164C45.0819 13.0508 44.996 12.7201 44.996 12.3242C44.996 11.9909 45.0572 11.7109 45.1796 11.4844C45.302 11.2578 45.4686 11.0755 45.6796 10.9375C45.8905 10.7995 46.1301 10.6953 46.3983 10.625C46.6691 10.5547 46.953 10.5052 47.2499 10.4766C47.5988 10.4401 47.8801 10.4062 48.0936 10.375C48.3072 10.3411 48.4621 10.2917 48.5585 10.2266C48.6548 10.1615 48.703 10.0651 48.703 9.9375V9.91406C48.703 9.66667 48.6249 9.47526 48.4686 9.33984C48.315 9.20443 48.0962 9.13672 47.8124 9.13672C47.5129 9.13672 47.2746 9.20312 47.0975 9.33594C46.9205 9.46615 46.8033 9.63021 46.746 9.82812L45.2069 9.70312C45.285 9.33854 45.4387 9.02344 45.6678 8.75781C45.897 8.48958 46.1926 8.28385 46.5546 8.14062C46.9191 7.99479 47.341 7.92188 47.8202 7.92188C48.1535 7.92188 48.4725 7.96094 48.7772 8.03906C49.0845 8.11719 49.3566 8.23828 49.5936 8.40234C49.8332 8.56641 50.022 8.77734 50.16 9.03516C50.2981 9.29036 50.3671 9.59635 50.3671 9.95312V14H48.7889V13.168H48.7421C48.6457 13.3555 48.5168 13.5208 48.3553 13.6641C48.1939 13.8047 47.9999 13.9154 47.7733 13.9961C47.5468 14.0742 47.285 14.1133 46.9882 14.1133ZM47.4647 12.9648C47.7095 12.9648 47.9257 12.9167 48.1132 12.8203C48.3007 12.7214 48.4478 12.5885 48.5546 12.4219C48.6613 12.2552 48.7147 12.0664 48.7147 11.8555V11.2188C48.6626 11.2526 48.591 11.2839 48.4999 11.3125C48.4113 11.3385 48.3111 11.3633 48.1991 11.3867C48.0871 11.4076 47.9751 11.4271 47.8632 11.4453C47.7512 11.4609 47.6496 11.4753 47.5585 11.4883C47.3632 11.5169 47.1926 11.5625 47.0468 11.625C46.9009 11.6875 46.7876 11.7721 46.7069 11.8789C46.6262 11.9831 46.5858 12.1133 46.5858 12.2695C46.5858 12.4961 46.6678 12.6693 46.8319 12.7891C46.9986 12.9062 47.2095 12.9648 47.4647 12.9648ZM51.6581 14V8H53.3221V14H51.6581ZM52.494 7.22656C52.2466 7.22656 52.0344 7.14453 51.8573 6.98047C51.6828 6.8138 51.5956 6.61458 51.5956 6.38281C51.5956 6.15365 51.6828 5.95703 51.8573 5.79297C52.0344 5.6263 52.2466 5.54297 52.494 5.54297C52.7414 5.54297 52.9524 5.6263 53.1268 5.79297C53.3039 5.95703 53.3925 6.15365 53.3925 6.38281C53.3925 6.61458 53.3039 6.8138 53.1268 6.98047C52.9524 7.14453 52.7414 7.22656 52.494 7.22656ZM56.3192 6V14H54.6552V6H56.3192Z" fill="#DBDBDB"/>
<g clip-path="url(#clip1_165_35)">
<path d="M7.02273 16H9.40909V9.81821L6 7.09094V14.9091C6 15.5128 6.45852 16 7.02273 16Z" fill="#E75A4D"/>
<path d="M17.5909 16H19.9773C20.5432 16 21 15.5109 21 14.9091V7.09094L17.5909 9.81821" fill="#E75A4D"/>
<path d="M17.5909 5.09095V9.81822L21 7.09095V5.63641C21 4.28732 19.5563 3.51822 18.5455 4.32732" fill="#E75A4D"/>
<path d="M9.40906 9.81822V5.09094L13.5 8.36367L17.5909 5.09094V9.81822L13.5 13.0909" fill="#E75A4D"/>
<path d="M6 5.63641V7.09095L9.40909 9.81822V5.09095L8.45455 4.32732C7.44205 3.51822 6 4.28732 6 5.63641Z" fill="#E75A4D"/>
</g>
</g>
<defs>
<linearGradient id="paint0_linear_165_35" x1="31" y1="0" x2="31" y2="20" gradientUnits="userSpaceOnUse">
<stop/>
<stop offset="1" stop-color="#141414"/>
</linearGradient>
<clipPath id="clip0_165_35">
<rect width="62" height="20" rx="3" fill="white"/>
</clipPath>
<clipPath id="clip1_165_35">
<rect width="15" height="12" fill="white" transform="translate(6 4)"/>
</clipPath>
</defs>
</svg>
