<svg width="62" height="20" viewBox="0 0 62 20" fill="none" xmlns="http://www.w3.org/2000/svg">
<g clip-path="url(#clip0_249_15)">
<rect width="62" height="20" fill="black"/>
<path d="M32.9419 8.52734C32.8664 8.29036 32.7648 8.07812 32.6372 7.89062C32.5122 7.70052 32.3625 7.53906 32.188 7.40625C32.0135 7.27083 31.8143 7.16797 31.5903 7.09766C31.369 7.02734 31.1255 6.99219 30.8599 6.99219C30.4093 6.99219 30.0031 7.10807 29.6411 7.33984C29.2791 7.57161 28.9927 7.91146 28.7817 8.35937C28.5734 8.80469 28.4692 9.35026 28.4692 9.99609C28.4692 10.6445 28.5747 11.1927 28.7856 11.6406C28.9966 12.0885 29.2856 12.4284 29.6528 12.6602C30.02 12.8919 30.438 13.0078 30.9067 13.0078C31.3416 13.0078 31.7205 12.9193 32.0435 12.7422C32.369 12.5651 32.6203 12.3151 32.7974 11.9922C32.9771 11.6667 33.0669 11.2839 33.0669 10.8438L33.3794 10.9023H31.0903V9.90625H34.2349V10.8164C34.2349 11.4883 34.0916 12.0716 33.8052 12.5664C33.5213 13.0586 33.1281 13.4388 32.6255 13.707C32.1255 13.9753 31.5526 14.1094 30.9067 14.1094C30.1828 14.1094 29.5474 13.9427 29.0005 13.6094C28.4562 13.276 28.0317 12.8034 27.7271 12.1914C27.4224 11.5768 27.27 10.8477 27.27 10.0039C27.27 9.36589 27.3586 8.79297 27.5356 8.28516C27.7127 7.77734 27.9614 7.34635 28.2817 6.99219C28.6047 6.63542 28.9836 6.36328 29.4185 6.17578C29.856 5.98568 30.3338 5.89062 30.8521 5.89062C31.2843 5.89062 31.6867 5.95443 32.0591 6.08203C32.4341 6.20964 32.7674 6.39062 33.0591 6.625C33.3534 6.85937 33.5968 7.13802 33.7896 7.46094C33.9823 7.78125 34.1125 8.13672 34.1802 8.52734H32.9419ZM35.6733 14V8H36.7944V8.97656H36.8687C36.9937 8.64583 37.1981 8.38802 37.4819 8.20313C37.7658 8.01563 38.1056 7.92188 38.5015 7.92188C38.9025 7.92188 39.2384 8.01563 39.5093 8.20313C39.7827 8.39062 39.9845 8.64844 40.1147 8.97656H40.1772C40.3205 8.65625 40.5483 8.40104 40.8608 8.21094C41.1733 8.01823 41.5457 7.92188 41.978 7.92188C42.5223 7.92188 42.9663 8.09245 43.3101 8.43359C43.6564 8.77474 43.8296 9.28906 43.8296 9.97656V14H42.6616V10.0859C42.6616 9.67969 42.5509 9.38542 42.3296 9.20312C42.1082 9.02083 41.8439 8.92969 41.5366 8.92969C41.1564 8.92969 40.8608 9.04687 40.6499 9.28125C40.439 9.51302 40.3335 9.8112 40.3335 10.1758V14H39.1694V10.0117C39.1694 9.6862 39.0679 9.42448 38.8647 9.22656C38.6616 9.02865 38.3973 8.92969 38.0718 8.92969C37.8504 8.92969 37.646 8.98828 37.4585 9.10547C37.2736 9.22005 37.1239 9.38021 37.0093 9.58594C36.8973 9.79167 36.8413 10.0299 36.8413 10.3008V14H35.6733ZM47.1411 14.1328C46.7609 14.1328 46.4172 14.0625 46.1099 13.9219C45.8026 13.7786 45.5591 13.5716 45.3794 13.3008C45.2023 13.0299 45.1138 12.6979 45.1138 12.3047C45.1138 11.9661 45.1789 11.6875 45.3091 11.4687C45.4393 11.25 45.6151 11.0768 45.8364 10.9492C46.0578 10.8216 46.3052 10.7253 46.5786 10.6602C46.8521 10.5951 47.1307 10.5456 47.4146 10.5117C47.7739 10.4701 48.0656 10.4362 48.2896 10.4102C48.5135 10.3815 48.6763 10.3359 48.7778 10.2734C48.8794 10.2109 48.9302 10.1094 48.9302 9.96875V9.94141C48.9302 9.60026 48.8338 9.33594 48.6411 9.14844C48.451 8.96094 48.1672 8.86719 47.7896 8.86719C47.3963 8.86719 47.0864 8.95443 46.8599 9.12891C46.6359 9.30078 46.481 9.49219 46.395 9.70312L45.2974 9.45312C45.4276 9.08854 45.6177 8.79427 45.8677 8.57031C46.1203 8.34375 46.4106 8.17969 46.7388 8.07812C47.0669 7.97396 47.4119 7.92188 47.7739 7.92188C48.0135 7.92188 48.2674 7.95052 48.5356 8.00781C48.8065 8.0625 49.0591 8.16406 49.2935 8.3125C49.5304 8.46094 49.7244 8.67318 49.8755 8.94922C50.0265 9.22266 50.1021 9.57813 50.1021 10.0156V14H48.9614V13.1797H48.9146C48.839 13.3307 48.7257 13.4792 48.5747 13.625C48.4237 13.7708 48.2297 13.8919 47.9927 13.9883C47.7557 14.0846 47.4718 14.1328 47.1411 14.1328ZM47.395 13.1953C47.7179 13.1953 47.994 13.1315 48.2231 13.0039C48.4549 12.8763 48.6307 12.7096 48.7505 12.5039C48.8729 12.2956 48.9341 12.0729 48.9341 11.8359V11.0625C48.8924 11.1042 48.8117 11.1432 48.6919 11.1797C48.5747 11.2135 48.4406 11.2435 48.2896 11.2695C48.1385 11.293 47.9914 11.3151 47.8481 11.3359C47.7049 11.3542 47.5851 11.3698 47.4888 11.3828C47.2622 11.4115 47.0552 11.4596 46.8677 11.5273C46.6828 11.5951 46.5343 11.6927 46.4224 11.8203C46.313 11.9453 46.2583 12.112 46.2583 12.3203C46.2583 12.6094 46.3651 12.8281 46.5786 12.9766C46.7922 13.1224 47.0643 13.1953 47.395 13.1953ZM51.6577 14V8H52.8257V14H51.6577ZM52.2476 7.07422C52.0444 7.07422 51.87 7.00651 51.7241 6.87109C51.5809 6.73307 51.5093 6.56901 51.5093 6.37891C51.5093 6.1862 51.5809 6.02214 51.7241 5.88672C51.87 5.7487 52.0444 5.67969 52.2476 5.67969C52.4507 5.67969 52.6239 5.7487 52.7671 5.88672C52.9129 6.02214 52.9858 6.1862 52.9858 6.37891C52.9858 6.56901 52.9129 6.73307 52.7671 6.87109C52.6239 7.00651 52.4507 7.07422 52.2476 7.07422ZM55.5649 6V14H54.397V6H55.5649Z" fill="#DBDBDB"/>
<g clip-path="url(#clip1_249_15)">
<path d="M7.02273 16H9.40909V9.81821L6 7.09094V14.9091C6 15.5128 6.45852 16 7.02273 16Z" fill="#E75A4D"/>
<path d="M17.5909 16H19.9773C20.5432 16 21 15.5109 21 14.9091V7.09094L17.5909 9.81821" fill="#E75A4D"/>
<path d="M17.5909 5.09095L13.5 8.5V10V11.5L17.5909 9.81822L20.9999 10L21 5.63641C21 4.28732 19.5562 3.51822 18.5454 4.32732" fill="#E75A4D"/>
<path d="M9.40906 9.81822V5.09094L13.5 8.36367L17.5909 5.09094V7.45458V9.81822L13.5 13.0909" fill="#E75A4D"/>
<path d="M6 5.63946V10H7.5H8.5L9.40909 9.82031L13.5 13L15 11L17 8.5H13.5L9.40909 5.094L8.45455 4.33037C7.44205 3.52128 6 4.29037 6 5.63946Z" fill="#E75A4D"/>
</g>
</g>
<defs>
<clipPath id="clip0_249_15">
<rect width="62" height="20" rx="2" fill="white"/>
</clipPath>
<clipPath id="clip1_249_15">
<rect width="15" height="12" fill="white" transform="translate(6 4)"/>
</clipPath>
</defs>
</svg>
