<svg width="74" height="20" viewBox="0 0 74 20" fill="none" xmlns="http://www.w3.org/2000/svg">
<g clip-path="url(#clip0_249_10)">
<rect width="74" height="20" fill="black"/>
<path d="M25.1943 14V6H26.1631V13.1406H29.8818V14H25.1943ZM31.2568 14V8H32.1787V14H31.2568ZM31.7256 7C31.5459 7 31.391 6.9388 31.2607 6.81641C31.1331 6.69401 31.0693 6.54688 31.0693 6.375C31.0693 6.20313 31.1331 6.05599 31.2607 5.93359C31.391 5.8112 31.5459 5.75 31.7256 5.75C31.9053 5.75 32.0589 5.8112 32.1865 5.93359C32.3167 6.05599 32.3818 6.20313 32.3818 6.375C32.3818 6.54688 32.3167 6.69401 32.1865 6.81641C32.0589 6.9388 31.9053 7 31.7256 7ZM34.7891 10.3906V14H33.8672V8H34.7578V8.9375H34.8359C34.9766 8.63281 35.1901 8.38802 35.4766 8.20313C35.763 8.01563 36.1328 7.92188 36.5859 7.92188C36.9922 7.92188 37.3477 8.00521 37.6523 8.17187C37.957 8.33594 38.194 8.58594 38.3633 8.92187C38.5326 9.25521 38.6172 9.67708 38.6172 10.1875V14H37.6953V10.25C37.6953 9.77865 37.5729 9.41146 37.3281 9.14844C37.0833 8.88281 36.7474 8.75 36.3203 8.75C36.026 8.75 35.763 8.8138 35.5313 8.94141C35.3021 9.06901 35.1211 9.25521 34.9883 9.5C34.8555 9.74479 34.7891 10.0417 34.7891 10.3906ZM41.1611 11.8125L41.1455 10.6719H41.333L43.958 8H45.0986L42.3018 10.8281H42.2236L41.1611 11.8125ZM40.3018 14V6H41.2236V14H40.3018ZM44.1143 14L41.7705 11.0312L42.4268 10.3906L45.2861 14H44.1143ZM48.5537 14.125C47.9756 14.125 47.4769 13.9974 47.0576 13.7422C46.641 13.4844 46.3193 13.125 46.0928 12.6641C45.8688 12.2005 45.7568 11.6615 45.7568 11.0469C45.7568 10.4323 45.8688 9.89062 46.0928 9.42187C46.3193 8.95052 46.6344 8.58333 47.0381 8.32031C47.4443 8.05469 47.9183 7.92188 48.46 7.92188C48.7725 7.92188 49.0811 7.97396 49.3857 8.07812C49.6904 8.18229 49.9678 8.35156 50.2178 8.58594C50.4678 8.81771 50.667 9.125 50.8154 9.50781C50.9639 9.89062 51.0381 10.362 51.0381 10.9219V11.3125H46.4131V10.5156H50.1006C50.1006 10.1771 50.0329 9.875 49.8975 9.60937C49.7646 9.34375 49.5745 9.13411 49.3271 8.98047C49.0824 8.82682 48.7933 8.75 48.46 8.75C48.0928 8.75 47.7751 8.84115 47.5068 9.02344C47.2412 9.20312 47.0368 9.4375 46.8936 9.72656C46.7503 10.0156 46.6787 10.3255 46.6787 10.6562V11.1875C46.6787 11.6406 46.7568 12.0247 46.9131 12.3398C47.0719 12.6523 47.292 12.8906 47.5732 13.0547C47.8545 13.2161 48.1813 13.2969 48.5537 13.2969C48.7959 13.2969 49.0146 13.263 49.21 13.1953C49.4079 13.125 49.5785 13.0208 49.7217 12.8828C49.8649 12.7422 49.9756 12.5677 50.0537 12.3594L50.9443 12.6094C50.8506 12.9115 50.693 13.1771 50.4717 13.4062C50.2503 13.6328 49.9769 13.8099 49.6514 13.9375C49.3258 14.0625 48.96 14.125 48.5537 14.125ZM54.7061 14.125C54.2061 14.125 53.7646 13.9987 53.3818 13.7461C52.999 13.4909 52.6995 13.1315 52.4834 12.668C52.2673 12.2018 52.1592 11.651 52.1592 11.0156C52.1592 10.3854 52.2673 9.83854 52.4834 9.375C52.6995 8.91146 53.0003 8.55339 53.3857 8.30078C53.7712 8.04818 54.2165 7.92188 54.7217 7.92188C55.1123 7.92188 55.4209 7.98698 55.6475 8.11719C55.8766 8.24479 56.0511 8.39062 56.1709 8.55469C56.2933 8.71615 56.3883 8.84896 56.4561 8.95312H56.5342V6H57.4561V14H56.5654V13.0781H56.4561C56.3883 13.1875 56.292 13.3255 56.167 13.4922C56.042 13.6562 55.8636 13.8034 55.6318 13.9336C55.4001 14.0612 55.0915 14.125 54.7061 14.125ZM54.8311 13.2969C55.2008 13.2969 55.5133 13.2005 55.7686 13.0078C56.0238 12.8125 56.2178 12.543 56.3506 12.1992C56.4834 11.8529 56.5498 11.4531 56.5498 11C56.5498 10.5521 56.4847 10.1602 56.3545 9.82422C56.2243 9.48568 56.0316 9.22266 55.7764 9.03516C55.5212 8.84505 55.2061 8.75 54.8311 8.75C54.4404 8.75 54.1149 8.85026 53.8545 9.05078C53.5967 9.2487 53.4027 9.51823 53.2725 9.85937C53.1449 10.1979 53.0811 10.5781 53.0811 11C53.0811 11.4271 53.1462 11.8151 53.2764 12.1641C53.4092 12.5104 53.6045 12.7865 53.8623 12.9922C54.1227 13.1953 54.4456 13.2969 54.8311 13.2969ZM60.3662 6V14H59.3975V6H60.3662ZM63.1055 10.3906V14H62.1836V8H63.0742V8.9375H63.1523C63.293 8.63281 63.5065 8.38802 63.793 8.20313C64.0794 8.01563 64.4492 7.92188 64.9023 7.92188C65.3086 7.92188 65.6641 8.00521 65.9688 8.17187C66.2734 8.33594 66.5104 8.58594 66.6797 8.92187C66.849 9.25521 66.9336 9.67708 66.9336 10.1875V14H66.0117V10.25C66.0117 9.77865 65.8893 9.41146 65.6445 9.14844C65.3997 8.88281 65.0638 8.75 64.6367 8.75C64.3424 8.75 64.0794 8.8138 63.8477 8.94141C63.6185 9.06901 63.4375 9.25521 63.3047 9.5C63.1719 9.74479 63.1055 10.0417 63.1055 10.3906Z" fill="#DBDBDB"/>
<path d="M16.2246 14.2248H14.4465V11.4403C14.4465 10.7762 14.4347 9.92147 13.5218 9.92147C12.5957 9.92147 12.454 10.6449 12.454 11.3919V14.2246H10.676V8.49845H12.3829V9.28099H12.4068C12.5776 8.98891 12.8245 8.74863 13.121 8.58575C13.4176 8.42286 13.7528 8.34346 14.0909 8.35602C15.893 8.35602 16.2253 9.54141 16.2253 11.0835L16.2246 14.2248ZM8.66982 7.71572C8.46574 7.71576 8.26624 7.65528 8.09654 7.54193C7.92684 7.42858 7.79456 7.26745 7.71643 7.07892C7.6383 6.89038 7.61783 6.68292 7.65761 6.48275C7.69739 6.28259 7.79562 6.09871 7.9399 5.95438C8.08417 5.81005 8.26801 5.71174 8.46815 5.67189C8.6683 5.63204 8.87576 5.65244 9.06432 5.7305C9.25287 5.80857 9.41404 5.94079 9.52745 6.11046C9.64085 6.28012 9.7014 6.47961 9.70144 6.68369C9.70146 6.81919 9.6748 6.95337 9.62297 7.07857C9.57114 7.20377 9.49516 7.31754 9.39936 7.41337C9.30357 7.5092 9.18983 7.58523 9.06466 7.6371C8.93948 7.68898 8.80531 7.7157 8.66982 7.71572ZM9.55883 14.2248H7.77895V8.49845H9.55883V14.2248ZM17.111 4.00082H6.88549C6.6534 3.9982 6.42977 4.08783 6.26373 4.25002C6.09769 4.41221 6.00283 4.63369 6 4.86578V15.134C6.00274 15.3663 6.09753 15.5879 6.26357 15.7502C6.4296 15.9126 6.65329 16.0024 6.88549 15.9999H17.111C17.3437 16.0028 17.568 15.9133 17.7347 15.7509C17.9013 15.5886 17.9968 15.3667 18 15.134V4.86504C17.9967 4.63249 17.9012 4.41076 17.7345 4.24857C17.5678 4.08639 17.3435 3.99701 17.111 4.00008" fill="#0077B5"/>
</g>
<defs>
<clipPath id="clip0_249_10">
<rect width="74" height="20" rx="2" fill="white"/>
</clipPath>
</defs>
</svg>
