<svg width="73" height="20" viewBox="0 0 73 20" fill="none" xmlns="http://www.w3.org/2000/svg">
<g clip-path="url(#clip0_165_24)">
<rect width="73" height="20" rx="3" fill="url(#paint0_linear_165_24)"/>
<path d="M24.2393 14V6H25.4463V12.9609H29.0713V14H24.2393ZM30.3545 14V8H31.5225V14H30.3545ZM30.9443 7.07422C30.7412 7.07422 30.5667 7.00651 30.4209 6.87109C30.2777 6.73307 30.2061 6.56901 30.2061 6.37891C30.2061 6.1862 30.2777 6.02214 30.4209 5.88672C30.5667 5.7487 30.7412 5.67969 30.9443 5.67969C31.1475 5.67969 31.3206 5.7487 31.4639 5.88672C31.6097 6.02214 31.6826 6.1862 31.6826 6.37891C31.6826 6.56901 31.6097 6.73307 31.4639 6.87109C31.3206 7.00651 31.1475 7.07422 30.9443 7.07422ZM34.2617 10.4375V14H33.0938V8H34.2148V8.97656H34.2891C34.4271 8.65885 34.6432 8.40365 34.9375 8.21094C35.2344 8.01823 35.6081 7.92188 36.0586 7.92188C36.4674 7.92188 36.8255 8.00781 37.1328 8.17969C37.4401 8.34896 37.6784 8.60156 37.8477 8.9375C38.0169 9.27344 38.1016 9.6888 38.1016 10.1836V14H36.9336V10.3242C36.9336 9.88932 36.8203 9.54948 36.5937 9.30469C36.3672 9.05729 36.056 8.93359 35.6602 8.93359C35.3893 8.93359 35.1484 8.99219 34.9375 9.10937C34.7292 9.22656 34.5638 9.39844 34.4414 9.625C34.3216 9.84896 34.2617 10.1198 34.2617 10.4375ZM40.7422 11.9648L40.7344 10.5391H40.9375L43.3281 8H44.7266L42 10.8906H41.8164L40.7422 11.9648ZM39.668 14V6H40.8359V14H39.668ZM43.457 14L41.3086 11.1484L42.1133 10.332L44.8906 14H43.457ZM48.1299 14.1211C47.5387 14.1211 47.0296 13.9948 46.6025 13.7422C46.1781 13.487 45.8499 13.1289 45.6182 12.668C45.389 12.2044 45.2744 11.6615 45.2744 11.0391C45.2744 10.4245 45.389 9.88281 45.6182 9.41406C45.8499 8.94531 46.1729 8.57943 46.5869 8.31641C47.0036 8.05339 47.4906 7.92188 48.0479 7.92188C48.3864 7.92188 48.7145 7.97786 49.0322 8.08984C49.3499 8.20182 49.6351 8.3776 49.8877 8.61719C50.1403 8.85677 50.3395 9.16797 50.4854 9.55078C50.6312 9.93099 50.7041 10.3932 50.7041 10.9375V11.3516H45.9346V10.4766H49.5596C49.5596 10.1693 49.4971 9.89714 49.3721 9.66016C49.2471 9.42057 49.0713 9.23177 48.8447 9.09375C48.6208 8.95573 48.3577 8.88672 48.0557 8.88672C47.7275 8.88672 47.4411 8.96745 47.1963 9.12891C46.9541 9.28776 46.7666 9.49609 46.6338 9.75391C46.5036 10.0091 46.4385 10.2865 46.4385 10.5859V11.2695C46.4385 11.6706 46.5088 12.0117 46.6494 12.293C46.7926 12.5742 46.9919 12.7891 47.2471 12.9375C47.5023 13.0833 47.8005 13.1562 48.1416 13.1562C48.363 13.1562 48.5648 13.125 48.7471 13.0625C48.9294 12.9974 49.0869 12.901 49.2197 12.7734C49.3525 12.6458 49.4541 12.4883 49.5244 12.3008L50.6299 12.5C50.5413 12.8255 50.3825 13.1107 50.1533 13.3555C49.9268 13.5977 49.6416 13.7865 49.2979 13.9219C48.9567 14.0547 48.5674 14.1211 48.1299 14.1211ZM54.2461 14.1172C53.7617 14.1172 53.3294 13.9935 52.9492 13.7461C52.5716 13.4961 52.2747 13.1406 52.0586 12.6797C51.8451 12.2161 51.7383 11.6602 51.7383 11.0117C51.7383 10.3633 51.8464 9.80859 52.0625 9.34766C52.2813 8.88672 52.5807 8.53385 52.9609 8.28906C53.3411 8.04427 53.7721 7.92188 54.2539 7.92188C54.6263 7.92188 54.9258 7.98438 55.1523 8.10937C55.3815 8.23177 55.5586 8.375 55.6836 8.53906C55.8112 8.70312 55.9102 8.84766 55.9805 8.97266H56.0508V6H57.2188V14H56.0781V13.0664H55.9805C55.9102 13.194 55.8086 13.3398 55.6758 13.5039C55.5456 13.668 55.3659 13.8112 55.1367 13.9336C54.9076 14.056 54.6107 14.1172 54.2461 14.1172ZM54.5039 13.1211C54.8398 13.1211 55.1237 13.0326 55.3555 12.8555C55.5898 12.6758 55.7669 12.4271 55.8867 12.1094C56.0091 11.7917 56.0703 11.4219 56.0703 11C56.0703 10.5833 56.0104 10.2187 55.8906 9.90625C55.7708 9.59375 55.5951 9.35026 55.3633 9.17578C55.1315 9.0013 54.8451 8.91406 54.5039 8.91406C54.1523 8.91406 53.8594 9.00521 53.625 9.1875C53.3906 9.36979 53.2135 9.61849 53.0938 9.93359C52.9766 10.2487 52.918 10.6042 52.918 11C52.918 11.401 52.9779 11.7617 53.0977 12.082C53.2174 12.4023 53.3945 12.6562 53.6289 12.8437C53.8659 13.0286 54.1576 13.1211 54.5039 13.1211ZM60.1865 6V14H58.9795V6H60.1865ZM63.0186 10.4375V14H61.8506V8H62.9717V8.97656H63.0459C63.1839 8.65885 63.4001 8.40365 63.6943 8.21094C63.9912 8.01823 64.3649 7.92188 64.8154 7.92188C65.2243 7.92188 65.5824 8.00781 65.8896 8.17969C66.1969 8.34896 66.4352 8.60156 66.6045 8.9375C66.7738 9.27344 66.8584 9.6888 66.8584 10.1836V14H65.6904V10.3242C65.6904 9.88932 65.5771 9.54948 65.3506 9.30469C65.124 9.05729 64.8128 8.93359 64.417 8.93359C64.1462 8.93359 63.9053 8.99219 63.6943 9.10937C63.486 9.22656 63.3206 9.39844 63.1982 9.625C63.0785 9.84896 63.0186 10.1198 63.0186 10.4375Z" fill="#DBDBDB"/>
<path d="M16.2246 14.2248H14.4465V11.4403C14.4465 10.7762 14.4347 9.92147 13.5218 9.92147C12.5957 9.92147 12.454 10.6449 12.454 11.3919V14.2246H10.676V8.49845H12.3829V9.28099H12.4068C12.5776 8.98891 12.8245 8.74863 13.121 8.58575C13.4176 8.42286 13.7528 8.34346 14.0909 8.35602C15.893 8.35602 16.2253 9.54141 16.2253 11.0835L16.2246 14.2248ZM8.66982 7.71572C8.46574 7.71576 8.26624 7.65528 8.09654 7.54193C7.92684 7.42858 7.79456 7.26745 7.71643 7.07892C7.6383 6.89038 7.61783 6.68292 7.65761 6.48275C7.69739 6.28259 7.79562 6.09871 7.9399 5.95438C8.08417 5.81005 8.26801 5.71174 8.46815 5.67189C8.6683 5.63204 8.87576 5.65244 9.06432 5.7305C9.25287 5.80857 9.41404 5.94079 9.52745 6.11046C9.64085 6.28012 9.7014 6.47961 9.70144 6.68369C9.70146 6.81919 9.6748 6.95337 9.62297 7.07857C9.57114 7.20377 9.49516 7.31754 9.39936 7.41337C9.30357 7.5092 9.18983 7.58523 9.06466 7.6371C8.93948 7.68898 8.80531 7.7157 8.66982 7.71572ZM9.55883 14.2248H7.77895V8.49845H9.55883V14.2248ZM17.111 4.00082H6.88549C6.6534 3.9982 6.42977 4.08783 6.26373 4.25002C6.09769 4.41221 6.00283 4.63369 6 4.86578V15.134C6.00274 15.3663 6.09753 15.5879 6.26357 15.7502C6.4296 15.9126 6.65329 16.0024 6.88549 15.9999H17.111C17.3437 16.0028 17.568 15.9133 17.7347 15.7509C17.9013 15.5886 17.9968 15.3667 18 15.134V4.86504C17.9967 4.63249 17.9012 4.41076 17.7345 4.24857C17.5678 4.08639 17.3435 3.99701 17.111 4.00008" fill="#0077B5"/>
</g>
<defs>
<linearGradient id="paint0_linear_165_24" x1="36.5" y1="0" x2="36.5" y2="20" gradientUnits="userSpaceOnUse">
<stop/>
<stop offset="1" stop-color="#141414"/>
</linearGradient>
<clipPath id="clip0_165_24">
<rect width="73" height="20" fill="white"/>
</clipPath>
</defs>
</svg>
