<svg width="74" height="20" viewBox="0 0 74 20" fill="none" xmlns="http://www.w3.org/2000/svg">
<g clip-path="url(#clip0_165_24)">
<rect width="74" height="20" rx="3" fill="url(#paint0_linear_165_24)"/>
<path d="M23.8306 14V6H25.522V12.6055H28.9517V14H23.8306ZM30.0405 14V8H31.7046V14H30.0405ZM30.8765 7.22656C30.6291 7.22656 30.4168 7.14453 30.2397 6.98047C30.0653 6.8138 29.978 6.61458 29.978 6.38281C29.978 6.15365 30.0653 5.95703 30.2397 5.79297C30.4168 5.6263 30.6291 5.54297 30.8765 5.54297C31.1239 5.54297 31.3348 5.6263 31.5093 5.79297C31.6864 5.95703 31.7749 6.15365 31.7749 6.38281C31.7749 6.61458 31.6864 6.8138 31.5093 6.98047C31.3348 7.14453 31.1239 7.22656 30.8765 7.22656ZM34.7017 10.5313V14H33.0376V8H34.6235V9.05859H34.6938C34.8267 8.70964 35.0493 8.43359 35.3618 8.23047C35.6743 8.02474 36.0532 7.92188 36.4985 7.92188C36.9152 7.92188 37.2785 8.01302 37.5884 8.19531C37.8983 8.3776 38.1392 8.63802 38.311 8.97656C38.4829 9.3125 38.5688 9.71354 38.5688 10.1797V14H36.9048V10.4766C36.9074 10.1094 36.8136 9.82292 36.6235 9.61719C36.4334 9.40885 36.1717 9.30469 35.8384 9.30469C35.6144 9.30469 35.4165 9.35286 35.2446 9.44922C35.0754 9.54557 34.9425 9.6862 34.8462 9.87109C34.7524 10.0534 34.7043 10.2734 34.7017 10.5313ZM41.3882 12.2734L41.3921 10.2773H41.6343L43.5562 8H45.4663L42.8843 11.0156H42.4897L41.3882 12.2734ZM39.8804 14V6H41.5444V14H39.8804ZM43.6304 14L41.8647 11.3867L42.9741 10.2109L45.5796 14H43.6304ZM48.77 14.1172C48.1528 14.1172 47.6216 13.9922 47.1763 13.7422C46.7336 13.4896 46.3924 13.1328 46.1528 12.6719C45.9132 12.2083 45.7935 11.6602 45.7935 11.0273C45.7935 10.4102 45.9132 9.86849 46.1528 9.40234C46.3924 8.9362 46.7297 8.57292 47.1646 8.3125C47.6021 8.05208 48.1151 7.92188 48.7036 7.92188C49.0994 7.92188 49.4679 7.98568 49.8091 8.11328C50.1528 8.23828 50.4523 8.42708 50.7075 8.67969C50.9653 8.93229 51.1659 9.25 51.3091 9.63281C51.4523 10.013 51.5239 10.4583 51.5239 10.9687V11.4258H46.4575V10.3945H49.9575C49.9575 10.1549 49.9054 9.94271 49.8013 9.75781C49.6971 9.57292 49.5526 9.42839 49.3677 9.32422C49.1854 9.21745 48.9731 9.16406 48.731 9.16406C48.4784 9.16406 48.2544 9.22266 48.0591 9.33984C47.8664 9.45443 47.7153 9.60937 47.606 9.80469C47.4966 9.9974 47.4406 10.2122 47.438 10.4492V11.4297C47.438 11.7266 47.4927 11.9831 47.6021 12.1992C47.714 12.4154 47.8716 12.582 48.0747 12.6992C48.2778 12.8164 48.5187 12.875 48.7974 12.875C48.9823 12.875 49.1515 12.849 49.3052 12.7969C49.4588 12.7448 49.5903 12.6667 49.6997 12.5625C49.8091 12.4583 49.8924 12.3307 49.9497 12.1797L51.4888 12.2812C51.4106 12.651 51.2505 12.974 51.0083 13.25C50.7687 13.5234 50.4588 13.737 50.0786 13.8906C49.701 14.0417 49.2648 14.1172 48.77 14.1172ZM54.8208 14.0977C54.3651 14.0977 53.9523 13.9805 53.5825 13.7461C53.2153 13.5091 52.9237 13.1615 52.7075 12.7031C52.494 12.2422 52.3872 11.6771 52.3872 11.0078C52.3872 10.3203 52.4979 9.7487 52.7192 9.29297C52.9406 8.83464 53.2349 8.49219 53.6021 8.26563C53.9718 8.03646 54.3768 7.92188 54.8169 7.92188C55.1528 7.92188 55.4328 7.97917 55.6567 8.09375C55.8833 8.20573 56.0656 8.34635 56.2036 8.51562C56.3442 8.68229 56.451 8.84635 56.5239 9.00781H56.5747V6H58.2349V14H56.5942V13.0391H56.5239C56.4458 13.2057 56.3351 13.3711 56.1919 13.5352C56.0513 13.6966 55.8677 13.8307 55.6411 13.9375C55.4172 14.0443 55.1437 14.0977 54.8208 14.0977ZM55.3481 12.7734C55.6164 12.7734 55.8429 12.7005 56.0278 12.5547C56.2153 12.4062 56.3586 12.1992 56.4575 11.9336C56.5591 11.668 56.6099 11.3568 56.6099 11C56.6099 10.6432 56.5604 10.3333 56.4614 10.0703C56.3625 9.80729 56.2192 9.60417 56.0317 9.46094C55.8442 9.31771 55.6164 9.24609 55.3481 9.24609C55.0747 9.24609 54.8442 9.32031 54.6567 9.46875C54.4692 9.61719 54.3273 9.82292 54.231 10.0859C54.1346 10.349 54.0864 10.6536 54.0864 11C54.0864 11.349 54.1346 11.6576 54.231 11.9258C54.3299 12.1914 54.4718 12.3997 54.6567 12.5508C54.8442 12.6992 55.0747 12.7734 55.3481 12.7734ZM61.3257 6V14H59.6343V6H61.3257ZM64.3501 10.5313V14H62.686V8H64.272V9.05859H64.3423C64.4751 8.70964 64.6978 8.43359 65.0103 8.23047C65.3228 8.02474 65.7017 7.92188 66.147 7.92188C66.5636 7.92188 66.9269 8.01302 67.2368 8.19531C67.5467 8.3776 67.7876 8.63802 67.9595 8.97656C68.1313 9.3125 68.2173 9.71354 68.2173 10.1797V14H66.5532V10.4766C66.5558 10.1094 66.4621 9.82292 66.272 9.61719C66.0819 9.40885 65.8201 9.30469 65.4868 9.30469C65.2629 9.30469 65.0649 9.35286 64.8931 9.44922C64.7238 9.54557 64.591 9.6862 64.4946 9.87109C64.4009 10.0534 64.3527 10.2734 64.3501 10.5313Z" fill="#DBDBDB"/>
<path d="M16.2246 14.2248H14.4465V11.4403C14.4465 10.7762 14.4347 9.92147 13.5218 9.92147C12.5957 9.92147 12.454 10.6449 12.454 11.3919V14.2246H10.676V8.49845H12.3829V9.28099H12.4068C12.5776 8.98891 12.8245 8.74863 13.121 8.58575C13.4176 8.42286 13.7528 8.34346 14.0909 8.35602C15.893 8.35602 16.2253 9.54141 16.2253 11.0835L16.2246 14.2248ZM8.66982 7.71572C8.46574 7.71576 8.26624 7.65528 8.09654 7.54193C7.92684 7.42858 7.79456 7.26745 7.71643 7.07892C7.6383 6.89038 7.61783 6.68292 7.65761 6.48275C7.69739 6.28259 7.79562 6.09871 7.9399 5.95438C8.08417 5.81005 8.26801 5.71174 8.46815 5.67189C8.6683 5.63204 8.87576 5.65244 9.06432 5.7305C9.25287 5.80857 9.41404 5.94079 9.52745 6.11046C9.64085 6.28012 9.7014 6.47961 9.70144 6.68369C9.70146 6.81919 9.6748 6.95337 9.62297 7.07857C9.57114 7.20377 9.49516 7.31754 9.39936 7.41337C9.30357 7.5092 9.18983 7.58523 9.06466 7.6371C8.93948 7.68898 8.80531 7.7157 8.66982 7.71572ZM9.55883 14.2248H7.77895V8.49845H9.55883V14.2248ZM17.111 4.00082H6.88549C6.6534 3.9982 6.42977 4.08783 6.26373 4.25002C6.09769 4.41221 6.00283 4.63369 6 4.86578V15.134C6.00274 15.3663 6.09753 15.5879 6.26357 15.7502C6.4296 15.9126 6.65329 16.0024 6.88549 15.9999H17.111C17.3437 16.0028 17.568 15.9133 17.7347 15.7509C17.9013 15.5886 17.9968 15.3667 18 15.134V4.86504C17.9967 4.63249 17.9012 4.41076 17.7345 4.24857C17.5678 4.08639 17.3435 3.99701 17.111 4.00008" fill="#0077B5"/>
</g>
<defs>
<linearGradient id="paint0_linear_165_24" x1="37" y1="0" x2="37" y2="20" gradientUnits="userSpaceOnUse">
<stop/>
<stop offset="1" stop-color="#141414"/>
</linearGradient>
<clipPath id="clip0_165_24">
<rect width="74" height="20" fill="white"/>
</clipPath>
</defs>
</svg>
