<svg width="74" height="20" viewBox="0 0 74 20" fill="none" xmlns="http://www.w3.org/2000/svg">
<g clip-path="url(#clip0_249_10)">
<rect width="74" height="20" fill="black"/>
<path d="M25.2393 14V6H26.4463V12.9609H30.0713V14H25.2393ZM31.3545 14V8H32.5225V14H31.3545ZM31.9443 7.07422C31.7412 7.07422 31.5667 7.00651 31.4209 6.87109C31.2777 6.73307 31.2061 6.56901 31.2061 6.37891C31.2061 6.1862 31.2777 6.02214 31.4209 5.88672C31.5667 5.7487 31.7412 5.67969 31.9443 5.67969C32.1475 5.67969 32.3206 5.7487 32.4639 5.88672C32.6097 6.02214 32.6826 6.1862 32.6826 6.37891C32.6826 6.56901 32.6097 6.73307 32.4639 6.87109C32.3206 7.00651 32.1475 7.07422 31.9443 7.07422ZM35.2617 10.4375V14H34.0938V8H35.2148V8.97656H35.2891C35.4271 8.65885 35.6432 8.40365 35.9375 8.21094C36.2344 8.01823 36.6081 7.92188 37.0586 7.92188C37.4674 7.92188 37.8255 8.00781 38.1328 8.17969C38.4401 8.34896 38.6784 8.60156 38.8477 8.9375C39.0169 9.27344 39.1016 9.6888 39.1016 10.1836V14H37.9336V10.3242C37.9336 9.88932 37.8203 9.54948 37.5937 9.30469C37.3672 9.05729 37.056 8.93359 36.6602 8.93359C36.3893 8.93359 36.1484 8.99219 35.9375 9.10937C35.7292 9.22656 35.5638 9.39844 35.4414 9.625C35.3216 9.84896 35.2617 10.1198 35.2617 10.4375ZM41.7422 11.9648L41.7344 10.5391H41.9375L44.3281 8H45.7266L43 10.8906H42.8164L41.7422 11.9648ZM40.668 14V6H41.8359V14H40.668ZM44.457 14L42.3086 11.1484L43.1133 10.332L45.8906 14H44.457ZM49.1299 14.1211C48.5387 14.1211 48.0296 13.9948 47.6025 13.7422C47.1781 13.487 46.8499 13.1289 46.6182 12.668C46.389 12.2044 46.2744 11.6615 46.2744 11.0391C46.2744 10.4245 46.389 9.88281 46.6182 9.41406C46.8499 8.94531 47.1729 8.57943 47.5869 8.31641C48.0036 8.05339 48.4906 7.92188 49.0479 7.92188C49.3864 7.92188 49.7145 7.97786 50.0322 8.08984C50.3499 8.20182 50.6351 8.3776 50.8877 8.61719C51.1403 8.85677 51.3395 9.16797 51.4854 9.55078C51.6312 9.93099 51.7041 10.3932 51.7041 10.9375V11.3516H46.9346V10.4766H50.5596C50.5596 10.1693 50.4971 9.89714 50.3721 9.66016C50.2471 9.42057 50.0713 9.23177 49.8447 9.09375C49.6208 8.95573 49.3577 8.88672 49.0557 8.88672C48.7275 8.88672 48.4411 8.96745 48.1963 9.12891C47.9541 9.28776 47.7666 9.49609 47.6338 9.75391C47.5036 10.0091 47.4385 10.2865 47.4385 10.5859V11.2695C47.4385 11.6706 47.5088 12.0117 47.6494 12.293C47.7926 12.5742 47.9919 12.7891 48.2471 12.9375C48.5023 13.0833 48.8005 13.1562 49.1416 13.1562C49.363 13.1562 49.5648 13.125 49.7471 13.0625C49.9294 12.9974 50.0869 12.901 50.2197 12.7734C50.3525 12.6458 50.4541 12.4883 50.5244 12.3008L51.6299 12.5C51.5413 12.8255 51.3825 13.1107 51.1533 13.3555C50.9268 13.5977 50.6416 13.7865 50.2979 13.9219C49.9567 14.0547 49.5674 14.1211 49.1299 14.1211ZM55.2461 14.1172C54.7617 14.1172 54.3294 13.9935 53.9492 13.7461C53.5716 13.4961 53.2747 13.1406 53.0586 12.6797C52.8451 12.2161 52.7383 11.6602 52.7383 11.0117C52.7383 10.3633 52.8464 9.80859 53.0625 9.34766C53.2813 8.88672 53.5807 8.53385 53.9609 8.28906C54.3411 8.04427 54.7721 7.92188 55.2539 7.92188C55.6263 7.92188 55.9258 7.98438 56.1523 8.10937C56.3815 8.23177 56.5586 8.375 56.6836 8.53906C56.8112 8.70312 56.9102 8.84766 56.9805 8.97266H57.0508V6H58.2188V14H57.0781V13.0664H56.9805C56.9102 13.194 56.8086 13.3398 56.6758 13.5039C56.5456 13.668 56.3659 13.8112 56.1367 13.9336C55.9076 14.056 55.6107 14.1172 55.2461 14.1172ZM55.5039 13.1211C55.8398 13.1211 56.1237 13.0326 56.3555 12.8555C56.5898 12.6758 56.7669 12.4271 56.8867 12.1094C57.0091 11.7917 57.0703 11.4219 57.0703 11C57.0703 10.5833 57.0104 10.2187 56.8906 9.90625C56.7708 9.59375 56.5951 9.35026 56.3633 9.17578C56.1315 9.0013 55.8451 8.91406 55.5039 8.91406C55.1523 8.91406 54.8594 9.00521 54.625 9.1875C54.3906 9.36979 54.2135 9.61849 54.0938 9.93359C53.9766 10.2487 53.918 10.6042 53.918 11C53.918 11.401 53.9779 11.7617 54.0977 12.082C54.2174 12.4023 54.3945 12.6562 54.6289 12.8437C54.8659 13.0286 55.1576 13.1211 55.5039 13.1211ZM61.1865 6V14H59.9795V6H61.1865ZM64.0186 10.4375V14H62.8506V8H63.9717V8.97656H64.0459C64.1839 8.65885 64.4001 8.40365 64.6943 8.21094C64.9912 8.01823 65.3649 7.92188 65.8154 7.92188C66.2243 7.92188 66.5824 8.00781 66.8896 8.17969C67.1969 8.34896 67.4352 8.60156 67.6045 8.9375C67.7738 9.27344 67.8584 9.6888 67.8584 10.1836V14H66.6904V10.3242C66.6904 9.88932 66.5771 9.54948 66.3506 9.30469C66.124 9.05729 65.8128 8.93359 65.417 8.93359C65.1462 8.93359 64.9053 8.99219 64.6943 9.10937C64.486 9.22656 64.3206 9.39844 64.1982 9.625C64.0785 9.84896 64.0186 10.1198 64.0186 10.4375Z" fill="#DBDBDB"/>
<path d="M16.2246 14.2248H14.4465V11.4403C14.4465 10.7762 14.4347 9.92147 13.5218 9.92147C12.5957 9.92147 12.454 10.6449 12.454 11.3919V14.2246H10.676V8.49845H12.3829V9.28099H12.4068C12.5776 8.98891 12.8245 8.74863 13.121 8.58575C13.4176 8.42286 13.7528 8.34346 14.0909 8.35602C15.893 8.35602 16.2253 9.54141 16.2253 11.0835L16.2246 14.2248ZM8.66982 7.71572C8.46574 7.71576 8.26624 7.65528 8.09654 7.54193C7.92684 7.42858 7.79456 7.26745 7.71643 7.07892C7.6383 6.89038 7.61783 6.68292 7.65761 6.48275C7.69739 6.28259 7.79562 6.09871 7.9399 5.95438C8.08417 5.81005 8.26801 5.71174 8.46815 5.67189C8.6683 5.63204 8.87576 5.65244 9.06432 5.7305C9.25287 5.80857 9.41404 5.94079 9.52745 6.11046C9.64085 6.28012 9.7014 6.47961 9.70144 6.68369C9.70146 6.81919 9.6748 6.95337 9.62297 7.07857C9.57114 7.20377 9.49516 7.31754 9.39936 7.41337C9.30357 7.5092 9.18983 7.58523 9.06466 7.6371C8.93948 7.68898 8.80531 7.7157 8.66982 7.71572ZM9.55883 14.2248H7.77895V8.49845H9.55883V14.2248ZM17.111 4.00082H6.88549C6.6534 3.9982 6.42977 4.08783 6.26373 4.25002C6.09769 4.41221 6.00283 4.63369 6 4.86578V15.134C6.00274 15.3663 6.09753 15.5879 6.26357 15.7502C6.4296 15.9126 6.65329 16.0024 6.88549 15.9999H17.111C17.3437 16.0028 17.568 15.9133 17.7347 15.7509C17.9013 15.5886 17.9968 15.3667 18 15.134V4.86504C17.9967 4.63249 17.9012 4.41076 17.7345 4.24857C17.5678 4.08639 17.3435 3.99701 17.111 4.00008" fill="#0077B5"/>
</g>
<defs>
<clipPath id="clip0_249_10">
<rect width="74" height="20" rx="2" fill="white"/>
</clipPath>
</defs>
</svg>
